<?xml version="1.0" encoding="utf-8"?>
<!-- Generator: Adobe Illustrator 28.2.0, SVG Export Plug-In . SVG Version: 6.00 Build 0)  -->
<svg version="1.1" id="circle" xmlns="http://www.w3.org/2000/svg" xmlns:xlink="http://www.w3.org/1999/xlink" x="0px" y="0px"
	 viewBox="0 0 300 100" style="enable-background:new 0 0 300 100;" xml:space="preserve">
<style type="text/css">
	.st0{stroke:#000000;stroke-width:0.25;stroke-miterlimit:10;}
	.st1{fill:none;stroke:#000000;stroke-width:4;stroke-linecap:round;stroke-linejoin:round;stroke-miterlimit:133.3333;}
</style>
<g>
	<path class="st0" d="M37.39,67.61c-2.88,1.52-6.47,2.28-10.77,2.28c-5.55,0-9.99-1.79-13.33-5.36c-3.34-3.57-5-8.26-5-14.06
		c0-6.24,1.88-11.28,5.63-15.12c3.75-3.84,8.51-5.77,14.28-5.77c3.7,0,6.76,0.54,9.19,1.6v4.87c-2.79-1.56-5.88-2.34-9.25-2.34
		c-4.48,0-8.11,1.5-10.89,4.49c-2.78,2.99-4.18,6.99-4.18,11.99c0,4.75,1.3,8.54,3.9,11.35c2.6,2.82,6.01,4.23,10.24,4.23
		c3.92,0,7.31-0.87,10.17-2.61V67.61z"/>
	<path class="st0" d="M47.02,34.32c-0.8,0-1.48-0.27-2.04-0.82c-0.56-0.54-0.84-1.23-0.84-2.07s0.28-1.53,0.84-2.08
		c0.56-0.55,1.24-0.83,2.04-0.83c0.82,0,1.51,0.28,2.08,0.83c0.57,0.55,0.86,1.25,0.86,2.08c0,0.8-0.29,1.48-0.86,2.04
		C48.53,34.04,47.83,34.32,47.02,34.32z M49.19,69.24h-4.46V41.39h4.46V69.24z"/>
	<path class="st0" d="M72.75,45.9c-0.78-0.6-1.9-0.9-3.37-0.9c-1.9,0-3.5,0.9-4.77,2.69c-1.28,1.8-1.92,4.24-1.92,7.34v14.2h-4.46
		V41.39h4.46v5.74h0.11c0.63-1.96,1.6-3.49,2.91-4.58c1.31-1.1,2.77-1.65,4.38-1.65c1.16,0,2.05,0.13,2.67,0.38V45.9z"/>
	<path class="st0" d="M95.84,67.96c-2.14,1.29-4.68,1.93-7.62,1.93c-3.97,0-7.18-1.29-9.61-3.88c-2.44-2.58-3.66-5.93-3.66-10.05
		c0-4.59,1.31-8.27,3.94-11.06c2.63-2.78,6.14-4.17,10.53-4.17c2.45,0,4.6,0.45,6.47,1.36v4.57c-2.07-1.45-4.28-2.18-6.64-2.18
		c-2.85,0-5.18,1.02-7,3.06s-2.73,4.72-2.73,8.04c0,3.26,0.86,5.84,2.57,7.72s4.01,2.83,6.89,2.83c2.43,0,4.71-0.81,6.85-2.42V67.96
		z"/>
	<path class="st0" d="M107.04,69.24h-4.46V28.01h4.46V69.24z"/>
	<path class="st0" d="M138.46,56.43h-19.66c0.07,3.1,0.91,5.49,2.5,7.18c1.6,1.69,3.79,2.53,6.58,2.53c3.14,0,6.02-1.03,8.65-3.1
		v4.19c-2.45,1.78-5.68,2.67-9.71,2.67c-3.94,0-7.03-1.26-9.27-3.79c-2.25-2.53-3.37-6.09-3.37-10.67c0-4.33,1.23-7.86,3.69-10.59
		c2.46-2.73,5.51-4.09,9.15-4.09s6.46,1.18,8.46,3.54c1.99,2.36,2.99,5.63,2.99,9.82V56.43z M133.89,52.65
		c-0.02-2.57-0.64-4.58-1.86-6.01c-1.22-1.43-2.92-2.15-5.1-2.15c-2.1,0-3.89,0.75-5.36,2.26c-1.47,1.51-2.38,3.47-2.72,5.9H133.89z
		"/>
	<path class="st0" d="M187.6,67.61c-2.88,1.52-6.47,2.28-10.77,2.28c-5.55,0-9.99-1.79-13.33-5.36c-3.34-3.57-5-8.26-5-14.06
		c0-6.24,1.88-11.28,5.63-15.12c3.75-3.84,8.51-5.77,14.28-5.77c3.7,0,6.76,0.54,9.19,1.6v4.87c-2.79-1.56-5.87-2.34-9.25-2.34
		c-4.48,0-8.11,1.5-10.89,4.49c-2.78,2.99-4.17,6.99-4.17,11.99c0,4.75,1.3,8.54,3.9,11.35c2.6,2.82,6.02,4.23,10.24,4.23
		c3.92,0,7.31-0.87,10.17-2.61V67.61z"/>
	<path class="st0" d="M209.47,45.9c-0.78-0.6-1.9-0.9-3.37-0.9c-1.9,0-3.5,0.9-4.77,2.69c-1.28,1.8-1.92,4.24-1.92,7.34v14.2h-4.46
		V41.39h4.46v5.74h0.11c0.63-1.96,1.6-3.49,2.91-4.58c1.31-1.1,2.76-1.65,4.38-1.65c1.16,0,2.05,0.13,2.67,0.38V45.9z"/>
</g>
<path class="st1" d="M222.04,39.41v21.23c0,2.02,0,3.02,0.39,3.79c0.35,0.68,0.9,1.23,1.57,1.57c0.77,0.39,1.78,0.39,3.79,0.39
	h10.44 M249.03,66.4h-5.4 M243.63,71.8V50.57c0-2.02,0-3.02-0.39-3.79c-0.34-0.68-0.9-1.23-1.57-1.57
	c-0.77-0.39-1.78-0.39-3.79-0.39h-10.44 M216.64,44.81h5.4"/>
<g>
	<path class="st0" d="M260.89,65.87h-0.11V82.7h-4.46V42.04h4.46v4.9h0.11c2.19-3.7,5.4-5.55,9.63-5.55c3.59,0,6.39,1.25,8.4,3.74
		s3.02,5.83,3.02,10.02c0,4.66-1.13,8.39-3.4,11.19c-2.27,2.8-5.37,4.2-9.3,4.2C265.63,70.54,262.84,68.99,260.89,65.87z
		 M260.78,54.63v3.89c0,2.3,0.75,4.26,2.24,5.86s3.4,2.41,5.7,2.41c2.7,0,4.82-1.03,6.35-3.1s2.3-4.94,2.3-8.62
		c0-3.1-0.72-5.53-2.15-7.29s-3.37-2.64-5.82-2.64c-2.59,0-4.68,0.9-6.25,2.71C261.57,49.65,260.78,51.92,260.78,54.63z"/>
</g>
</svg>
